<svg xmlns="http://www.w3.org/2000/svg" width="8" height="8" viewBox="0 0 8 8">
  <defs>
    <style>
      .cls-1 {
        fill: #fff;
        fill-rule: evenodd;
      }
    </style>
  </defs>
  <path class="cls-1" d="M686.784,1414.51l-2.51-2.51,2.508-2.51a0.731,0.731,0,0,0,0-1.04l-0.233-.23a0.729,0.729,0,0,0-.521-0.22h0a0.732,0.732,0,0,0-.521.22L683,1410.73l-2.511-2.51a0.732,0.732,0,0,0-1.041,0l-0.233.23a0.737,0.737,0,0,0-.218.52,0.71,0.71,0,0,0,.216.52l2.512,2.51-2.509,2.51a0.731,0.731,0,0,0,0,1.04l0.233,0.23a0.728,0.728,0,0,0,1.043,0l2.51-2.51,2.509,2.51a0.751,0.751,0,0,0,1.042,0l0.233-.23a0.737,0.737,0,0,0,.218-0.52,0.706,0.706,0,0,0-.216-0.52h0Z" transform="translate(-679 -1408)"/>
</svg>
