<svg xmlns="http://www.w3.org/2000/svg" width="16" height="16" viewBox="0 0 16 16">
  <defs>
    <style>
      .cls-1 {
        fill: #eacf42;
        fill-rule: evenodd;
      }
    </style>
  </defs>
  <path id="issue-icon" class="cls-1" d="M759.881,1395a1.821,1.821,0,0,1-1.289-.53l-5.063-5.07a1.815,1.815,0,0,1,0-2.57l6.772-6.78a4.067,4.067,0,0,1,2.542-1.05h4.329a1.826,1.826,0,0,1,1.823,1.82v4.33a4.048,4.048,0,0,1-1.053,2.54l-6.772,6.78a1.825,1.825,0,0,1-1.289.53h0Zm2.962-14.86a2.877,2.877,0,0,0-1.737.72l-6.772,6.77a0.687,0.687,0,0,0,0,.97l5.063,5.06a0.7,0.7,0,0,0,.967,0l6.772-6.77a2.919,2.919,0,0,0,.72-1.74v-4.33a0.68,0.68,0,0,0-.684-0.68h-4.329Zm1.6,5.66a2.24,2.24,0,1,1,2.239-2.24,2.246,2.246,0,0,1-2.239,2.24h0Zm0-3.42a1.18,1.18,0,1,0,1.179,1.18,1.181,1.181,0,0,0-1.179-1.18h0Z" transform="translate(-753 -1379)"/>
</svg>
