<svg xmlns="http://www.w3.org/2000/svg" width="26" height="26" viewBox="0 0 26 26">
  <defs>
    <style>
      .cls-1 {
        fill: #999;
        fill-rule: evenodd;
      }
    </style>
  </defs>
  <path id="notification-icon" class="cls-1" d="M1138.98,32a1,1,0,0,0-.98,1.013v1.05a10.009,10.009,0,0,0-8.99,9.843,0.349,0.349,0,0,0-.01.1v3.049a3.49,3.49,0,0,0,.5,6.946h4.6a5,5,0,0,0,9.8,0h4.6a3.49,3.49,0,0,0,.5-6.946V44.008a0.434,0.434,0,0,0-.01-0.113,10.01,10.01,0,0,0-8.99-9.831v-1.05a1,1,0,0,0-.99-1.013h-0.03Zm0.02,4.012a7.986,7.986,0,0,1,8,8v3.83a0.977,0.977,0,0,0,.29.884v0.006c0.01,0,.01.009,0.02,0.014a0.994,0.994,0,0,0,.85.264h0.34a1.5,1.5,0,1,1,0,3h-19a1.5,1.5,0,1,1,0-3h0.33a1,1,0,0,0,.89-0.293v0s0.01,0,.01-0.006,0-.005.01-0.008a1.015,1.015,0,0,0,.26-0.849v-3.84a7.986,7.986,0,0,1,8-8h0ZM1136.18,54h5.64a2.989,2.989,0,0,1-5.64,0h0Z" transform="translate(-1126 -32)"/>
</svg>
