<svg xmlns="http://www.w3.org/2000/svg" width="16" height="13" viewBox="0 0 16 13">
  <defs>
    <style>
      .cls-1 {
        fill: #eacf42;
        fill-rule: evenodd;
      }
    </style>
  </defs>
  <path id="refresh-icon" class="cls-1" d="M882.631,1384.2v6.66h-5.222l0.933-1.08-1.049-.85-1.83,2.1a0.656,0.656,0,0,0,0,.86l1.831,2.11,1.05-.86-0.828-.95h5.8a0.678,0.678,0,0,0,.685-0.67v-7.98a0.678,0.678,0,0,0-.685-0.67H878.23v1.33h4.4Zm-8.275-1.33h-5.669a0.678,0.678,0,0,0-.686.67v7.98a0.678,0.678,0,0,0,.686.67h5.086v-1.33h-4.4v-6.66h4.983l-0.881,1.02,1.049,0.85,1.831-2.1a0.654,0.654,0,0,0,0-.86l-1.831-2.11-1.049.86Z" transform="translate(-868 -1381)"/>
</svg>
