<svg xmlns="http://www.w3.org/2000/svg" width="16" height="16" viewBox="0 0 16 16">
  <defs>
    <style>
      .cls-1 {
        fill: #eacf42;
        fill-rule: evenodd;
      }
    </style>
  </defs>
  <path id="register-icon" class="cls-1" d="M497.131,1379h-9.163a1.875,1.875,0,0,0-1.869,1.87v1.23H484.87a1.873,1.873,0,0,0-1.87,1.86v9.17a1.875,1.875,0,0,0,1.87,1.87h9.162a1.875,1.875,0,0,0,1.869-1.87v-1.23h1.23a1.873,1.873,0,0,0,1.869-1.86v-9.17A1.875,1.875,0,0,0,497.131,1379Zm-2.611,14.12a0.488,0.488,0,0,1-.488.48H484.87a0.488,0.488,0,0,1-.489-0.48v-9.16a0.481,0.481,0,0,1,.489-0.48h9.162a0.481,0.481,0,0,1,.488.48v9.16Zm3.1-3.1a0.49,0.49,0,0,1-.488.49H495.9v-6.55a1.873,1.873,0,0,0-1.869-1.86h-6.569v-1.23a0.49,0.49,0,0,1,.489-0.49h9.179a0.49,0.49,0,0,1,.488.49v9.15Zm-5.288-2.17h-2.19v-2.19a0.691,0.691,0,0,0-1.381,0v2.19h-2.189a0.681,0.681,0,0,0-.691.69,0.734,0.734,0,0,0,.2.49,0.753,0.753,0,0,0,.489.2h2.189v2.19a0.69,0.69,0,0,0,.2.48,0.714,0.714,0,0,0,.489.21,0.687,0.687,0,0,0,.69-0.69v-2.19h2.19a0.681,0.681,0,0,0,.69-0.69A0.691,0.691,0,0,0,492.331,1387.85Z" transform="translate(-483 -1379)"/>
</svg>
