<svg xmlns="http://www.w3.org/2000/svg" width="26" height="26" viewBox="0 0 26 26">
  <defs>
    <style>
      .cls-1 {
        fill: #999;
        fill-rule: evenodd;
      }
    </style>
  </defs>
  <path id="settings-icon" class="cls-1" d="M1197,32a4.54,4.54,0,0,0-2.73.6,4.192,4.192,0,0,0-1.08,1.307c-0.01,0-.01,0-0.01,0a1.379,1.379,0,0,1-1.33.551v0a4.093,4.093,0,0,0-1.63-.2,4.476,4.476,0,0,0-2.41,1.551,4.478,4.478,0,0,0-1.55,2.412,3.947,3.947,0,0,0,.2,1.629v0a1.407,1.407,0,0,1-.56,1.33v0a4.24,4.24,0,0,0-1.3,1.07A4.54,4.54,0,0,0,1184,45a4.54,4.54,0,0,0,.6,2.744,4.245,4.245,0,0,0,1.3,1.07s0,0,.01,0a1.422,1.422,0,0,1,.55,1.33v0a3.953,3.953,0,0,0-.19,1.649,4.506,4.506,0,0,0,1.54,2.392,4.529,4.529,0,0,0,2.39,1.539,4.17,4.17,0,0,0,1.65-.185h0a1.387,1.387,0,0,1,1.33.551s0,0,.01,0a4.169,4.169,0,0,0,1.08,1.307,6.554,6.554,0,0,0,5.46,0,4.168,4.168,0,0,0,1.08-1.307c0.01,0,.01,0,0.01,0a1.379,1.379,0,0,1,1.33-.551v0a4.215,4.215,0,0,0,1.66.174,4.5,4.5,0,0,0,2.38-1.527,4.482,4.482,0,0,0,1.53-2.377,4.094,4.094,0,0,0-.18-1.664v0a1.407,1.407,0,0,1,.56-1.33v0a4.384,4.384,0,0,0,1.31-1.094A4.58,4.58,0,0,0,1210,45a4.58,4.58,0,0,0-.59-2.721,4.391,4.391,0,0,0-1.31-1.094s0,0-.01,0a1.421,1.421,0,0,1-.55-1.33v0a4.044,4.044,0,0,0,.17-1.678,4.532,4.532,0,0,0-1.52-2.363,4.525,4.525,0,0,0-2.36-1.52,4.246,4.246,0,0,0-1.68.166h0a1.387,1.387,0,0,1-1.33-.551s0,0-.01,0a4.193,4.193,0,0,0-1.08-1.306A4.538,4.538,0,0,0,1197,32h0Zm0,2a3,3,0,0,1,1.57.227,9.024,9.024,0,0,1,.64.869,3.4,3.4,0,0,0,3.23,1.338v0c0.68-.1.94-0.192,1.06-0.172a3.059,3.059,0,0,1,1.28.959,3.1,3.1,0,0,1,.96,1.276c0.02,0.123-.08.381-0.18,1.063l0.01,0a3.39,3.39,0,0,0,1.34,3.234,8.391,8.391,0,0,1,.86.641A3.039,3.039,0,0,1,1208,45a3.039,3.039,0,0,1-.23,1.568,7.123,7.123,0,0,1-.87.641,3.406,3.406,0,0,0-1.33,3.234l-0.01,0c0.1,0.689.2,0.945,0.18,1.059a3,3,0,0,1-.96,1.279,3.178,3.178,0,0,1-1.28.967c-0.12.018-.37-0.079-1.06-0.18v0a3.387,3.387,0,0,0-3.23,1.34,7.854,7.854,0,0,1-.64.867,5.553,5.553,0,0,1-3.14,0,9.367,9.367,0,0,1-.64-0.869,3.4,3.4,0,0,0-3.23-1.338v0c-0.7.1-.95,0.205-1.05,0.189a3.209,3.209,0,0,1-1.29-.977,3.145,3.145,0,0,1-.97-1.283c-0.02-.1.08-0.357,0.19-1.055l-0.01,0a3.39,3.39,0,0,0-1.34-3.234c-0.54-.407-0.79-0.526-0.87-0.629A3.184,3.184,0,0,1,1186,45a3.183,3.183,0,0,1,.22-1.58c0.08-.1.33-0.22,0.88-0.629a3.406,3.406,0,0,0,1.33-3.234l0.01,0c-0.11-.708-0.22-0.962-0.2-1.051a3.216,3.216,0,0,1,.98-1.287,3.286,3.286,0,0,1,1.29-.986c0.09-.013.34,0.1,1.05,0.2v0a3.388,3.388,0,0,0,3.23-1.34,9.3,9.3,0,0,1,.64-0.867A3,3,0,0,1,1197,34h0Zm0,7a4,4,0,1,0,4,4A4.013,4.013,0,0,0,1197,41Zm0,2a2,2,0,1,1-2,2A1.983,1.983,0,0,1,1197,43Z" transform="translate(-1184 -32)"/>
</svg>
