<?xml version="1.0" encoding="utf-8"?>
<!-- Generator: Adobe Illustrator 23.1.1, SVG Export Plug-In . SVG Version: 6.00 Build 0)  -->
<svg version="1.1" id="Layer_1" xmlns="http://www.w3.org/2000/svg" xmlns:xlink="http://www.w3.org/1999/xlink" x="0px" y="0px"
	 viewBox="0 0 15.8 9.8" style="enable-background:new 0 0 15.8 9.8;" xml:space="preserve">
<style type="text/css">
	.st0{fill-rule:evenodd;clip-rule:evenodd;fill:#EACF42;}
</style>
<g id="track-icon">
	<path class="st0" d="M15.4,5.4L15.4,5.4c-0.5,0.2-0.9,0-1.2-0.4l-1-2.1l-2,6.2c-0.1,0.3-0.4,0.6-0.8,0.6h0c0,0,0,0,0,0
		c-0.3,0-0.6-0.2-0.8-0.5L7.7,4.7L6.2,8.4C6.1,8.7,5.8,8.9,5.5,8.9C5.2,9,4.9,8.8,4.7,8.6L3,6.2L1.5,8C1.2,8.3,0.7,8.4,0.3,8.1
		C0.1,8,0,7.8,0,7.6C0,7.4,0,7.2,0.2,7l2.3-2.6c0.2-0.2,0.4-0.3,0.7-0.3c0.2,0,0.5,0.1,0.6,0.4l1.4,2l1.7-4.1C7.1,2,7.4,1.8,7.7,1.8
		h0C8,1.8,8.4,2,8.5,2.3l1.8,4.3l1.9-6C12.3,0.2,12.6,0,12.9,0H13c0.3,0,0.6,0.2,0.8,0.5l2,3.9C15.9,4.7,15.8,5.2,15.4,5.4z"/>
</g>
</svg>
