<svg xmlns="http://www.w3.org/2000/svg" width="26" height="26" viewBox="0 0 26 26">
  <defs>
    <style>
      .cls-1 {
        fill: #999;
        fill-rule: evenodd;
      }
    </style>
  </defs>
  <path id="user-icon" class="cls-1" d="M1255,32a7,7,0,1,0,7,7A7.018,7.018,0,0,0,1255,32Zm0,2a5,5,0,1,1-5,5A4.987,4.987,0,0,1,1255,34Zm0,14c-6.05,0-9.3.765-11.15,2.492a5.6,5.6,0,0,0-1.63,3.063A17.735,17.735,0,0,0,1242,57a1,1,0,0,0,1,1h24a1,1,0,0,0,1-1,17.352,17.352,0,0,0-.22-3.4,5.586,5.586,0,0,0-1.63-3.064C1264.31,48.8,1261.06,48,1255,48h0Zm0,2c5.87,0,8.61.89,9.78,1.994a3.482,3.482,0,0,1,1.04,2,13.549,13.549,0,0,1,.12,2h-21.88a14.16,14.16,0,0,1,.12-2.055,3.455,3.455,0,0,1,1.03-1.99c1.17-1.088,3.92-1.955,9.79-1.955h0Z" transform="translate(-1242 -32)"/>
</svg>
